<svg width="133" height="234" viewBox="0 0 133 234" fill="none" xmlns="http://www.w3.org/2000/svg">
<circle r="11" transform="matrix(-1 0 0 1 11 11)" fill="#197DD9"/>
<ellipse rx="11" ry="11.5" transform="matrix(-1 0 0 1 11 46.5)" fill="#197DD9"/>
<circle r="11" transform="matrix(-1 0 0 1 11 82)" fill="#197DD9"/>
<ellipse rx="11" ry="11.5" transform="matrix(-1 0 0 1 11 117.5)" fill="#197DD9"/>
<circle r="11" transform="matrix(-1 0 0 1 11 153)" fill="#197DD9"/>
<circle r="11" transform="matrix(-1 0 0 1 11 188)" fill="#197DD9"/>
<circle r="11" transform="matrix(-1 0 0 1 11 223)" fill="#197DD9"/>
<circle r="11" transform="matrix(-1 0 0 1 48 11)" fill="#197DD9"/>
<ellipse rx="11" ry="11.5" transform="matrix(-1 0 0 1 48 46.5)" fill="#197DD9"/>
<circle r="11" transform="matrix(-1 0 0 1 48 82)" fill="#197DD9"/>
<ellipse rx="11" ry="11.5" transform="matrix(-1 0 0 1 48 117.5)" fill="#197DD9"/>
<circle r="11" transform="matrix(-1 0 0 1 48 153)" fill="#197DD9"/>
<circle r="11" transform="matrix(-1 0 0 1 48 188)" fill="#197DD9"/>
<circle r="11" transform="matrix(-1 0 0 1 48 223)" fill="#197DD9"/>
<circle r="11" transform="matrix(-1 0 0 1 85 11)" fill="#197DD9"/>
<ellipse rx="11" ry="11.5" transform="matrix(-1 0 0 1 85 46.5)" fill="#197DD9"/>
<circle r="11" transform="matrix(-1 0 0 1 85 82)" fill="#197DD9"/>
<ellipse rx="11" ry="11.5" transform="matrix(-1 0 0 1 85 117.5)" fill="#197DD9"/>
<circle r="11" transform="matrix(-1 0 0 1 85 153)" fill="#197DD9"/>
<circle r="11" transform="matrix(-1 0 0 1 85 188)" fill="#197DD9"/>
<circle r="11" transform="matrix(-1 0 0 1 85 223)" fill="#197DD9"/>
<circle r="11" transform="matrix(-1 0 0 1 122 11)" fill="#197DD9"/>
<ellipse rx="11" ry="11.5" transform="matrix(-1 0 0 1 122 46.5)" fill="#197DD9"/>
<circle r="11" transform="matrix(-1 0 0 1 122 82)" fill="#197DD9"/>
<ellipse rx="11" ry="11.5" transform="matrix(-1 0 0 1 122 117.5)" fill="#197DD9"/>
<circle r="11" transform="matrix(-1 0 0 1 122 153)" fill="#197DD9"/>
<circle r="11" transform="matrix(-1 0 0 1 122 188)" fill="#197DD9"/>
<circle r="11" transform="matrix(-1 0 0 1 122 223)" fill="#197DD9"/>
</svg>
