<svg width="165" height="327" viewBox="0 0 165 327" fill="none" xmlns="http://www.w3.org/2000/svg">
<g opacity="0.2">
<circle cx="7.5" cy="7.5" r="7.5" fill="#09A57E"/>
<circle cx="37.5" cy="7.5" r="7.5" fill="#09A57E"/>
<circle cx="67.5" cy="7.5" r="7.5" fill="#09A57E"/>
<circle cx="97.5" cy="7.5" r="7.5" fill="#09A57E"/>
<circle cx="127.5" cy="7.5" r="7.5" fill="#09A57E"/>
<circle cx="157.5" cy="7.5" r="7.5" fill="#09A57E"/>
<circle cx="7.5" cy="59.5" r="7.5" fill="#09A57E"/>
<circle cx="37.5" cy="59.5" r="7.5" fill="#09A57E"/>
<circle cx="67.5" cy="59.5" r="7.5" fill="#09A57E"/>
<circle cx="97.5" cy="59.5" r="7.5" fill="#09A57E"/>
<circle cx="127.5" cy="59.5" r="7.5" fill="#09A57E"/>
<circle cx="157.5" cy="59.5" r="7.5" fill="#09A57E"/>
<circle cx="7.5" cy="163.5" r="7.5" fill="#09A57E"/>
<circle cx="37.5" cy="163.5" r="7.5" fill="#09A57E"/>
<circle cx="67.5" cy="163.5" r="7.5" fill="#09A57E"/>
<circle cx="97.5" cy="163.5" r="7.5" fill="#09A57E"/>
<circle cx="127.5" cy="163.5" r="7.5" fill="#09A57E"/>
<circle cx="157.5" cy="163.5" r="7.5" fill="#09A57E"/>
<circle cx="7.5" cy="111.5" r="7.5" fill="#09A57E"/>
<circle cx="37.5" cy="111.5" r="7.5" fill="#09A57E"/>
<circle cx="67.5" cy="111.5" r="7.5" fill="#09A57E"/>
<circle cx="97.5" cy="111.5" r="7.5" fill="#09A57E"/>
<circle cx="127.5" cy="111.5" r="7.5" fill="#09A57E"/>
<circle cx="157.5" cy="111.5" r="7.5" fill="#09A57E"/>
<circle cx="7.5" cy="215.5" r="7.5" fill="#09A57E"/>
<circle cx="37.5" cy="215.5" r="7.5" fill="#09A57E"/>
<circle cx="67.5" cy="215.5" r="7.5" fill="#09A57E"/>
<circle cx="97.5" cy="215.5" r="7.5" fill="#09A57E"/>
<circle cx="127.5" cy="215.5" r="7.5" fill="#09A57E"/>
<circle cx="157.5" cy="215.5" r="7.5" fill="#09A57E"/>
<circle cx="7.5" cy="293.5" r="7.5" fill="#09A57E"/>
<circle cx="37.5" cy="293.5" r="7.5" fill="#09A57E"/>
<circle cx="67.5" cy="293.5" r="7.5" fill="#09A57E"/>
<circle cx="97.5" cy="293.5" r="7.5" fill="#09A57E"/>
<circle cx="127.5" cy="293.5" r="7.5" fill="#09A57E"/>
<circle cx="157.5" cy="293.5" r="7.5" fill="#09A57E"/>
<circle cx="7.5" cy="33.5" r="7.5" fill="#09A57E"/>
<circle cx="37.5" cy="33.5" r="7.5" fill="#09A57E"/>
<circle cx="67.5" cy="33.5" r="7.5" fill="#09A57E"/>
<circle cx="97.5" cy="33.5" r="7.5" fill="#09A57E"/>
<circle cx="127.5" cy="33.5" r="7.5" fill="#09A57E"/>
<circle cx="157.5" cy="33.5" r="7.5" fill="#09A57E"/>
<circle cx="7.5" cy="85.5" r="7.5" fill="#09A57E"/>
<circle cx="37.5" cy="85.5" r="7.5" fill="#09A57E"/>
<circle cx="67.5" cy="85.5" r="7.5" fill="#09A57E"/>
<circle cx="97.5" cy="85.5" r="7.5" fill="#09A57E"/>
<circle cx="127.5" cy="85.5" r="7.5" fill="#09A57E"/>
<circle cx="157.5" cy="85.5" r="7.5" fill="#09A57E"/>
<circle cx="7.5" cy="189.5" r="7.5" fill="#09A57E"/>
<circle cx="37.5" cy="189.5" r="7.5" fill="#09A57E"/>
<circle cx="67.5" cy="189.5" r="7.5" fill="#09A57E"/>
<circle cx="97.5" cy="189.5" r="7.5" fill="#09A57E"/>
<circle cx="127.5" cy="189.5" r="7.5" fill="#09A57E"/>
<circle cx="157.5" cy="189.5" r="7.5" fill="#09A57E"/>
<circle cx="7.5" cy="267.5" r="7.5" fill="#09A57E"/>
<circle cx="37.5" cy="267.5" r="7.5" fill="#09A57E"/>
<circle cx="67.5" cy="267.5" r="7.5" fill="#09A57E"/>
<circle cx="97.5" cy="267.5" r="7.5" fill="#09A57E"/>
<circle cx="127.5" cy="267.5" r="7.5" fill="#09A57E"/>
<circle cx="157.5" cy="267.5" r="7.5" fill="#09A57E"/>
<circle cx="7.5" cy="137.5" r="7.5" fill="#09A57E"/>
<circle cx="37.5" cy="137.5" r="7.5" fill="#09A57E"/>
<circle cx="67.5" cy="137.5" r="7.5" fill="#09A57E"/>
<circle cx="97.5" cy="137.5" r="7.5" fill="#09A57E"/>
<circle cx="127.5" cy="137.5" r="7.5" fill="#09A57E"/>
<circle cx="157.5" cy="137.5" r="7.5" fill="#09A57E"/>
<circle cx="7.5" cy="241.5" r="7.5" fill="#09A57E"/>
<circle cx="37.5" cy="241.5" r="7.5" fill="#09A57E"/>
<circle cx="67.5" cy="241.5" r="7.5" fill="#09A57E"/>
<circle cx="97.5" cy="241.5" r="7.5" fill="#09A57E"/>
<circle cx="127.5" cy="241.5" r="7.5" fill="#09A57E"/>
<circle cx="157.5" cy="241.5" r="7.5" fill="#09A57E"/>
<circle cx="7.5" cy="319.5" r="7.5" fill="#09A57E"/>
<circle cx="37.5" cy="319.5" r="7.5" fill="#09A57E"/>
<circle cx="67.5" cy="319.5" r="7.5" fill="#09A57E"/>
<circle cx="97.5" cy="319.5" r="7.5" fill="#09A57E"/>
<circle cx="127.5" cy="319.5" r="7.5" fill="#09A57E"/>
<circle cx="157.5" cy="319.5" r="7.5" fill="#09A57E"/>
</g>
</svg>
