<?xml version="1.0" standalone="no"?><!DOCTYPE svg PUBLIC "-//W3C//DTD SVG 1.1//EN" "http://www.w3.org/Graphics/SVG/1.1/DTD/svg11.dtd">

<svg class="icon" height="512" viewBox="0 0 1024 1024" version="1.1" xmlns="http://www.w3.org/2000/svg">
	<path d="M853.574827 523.946667a138.126222 138.126222 0 0 0-101.262223-36.579556l-14.222222 1.706667h-10.808889c-17.92 0.739556-27.875556-4.437333-29.923555-15.587556-2.275556-11.719111 5.688889-32.199111 24.462222-61.44 19.342222-29.980444 53.475556-64.056889 101.831111-102.229333 19.911111-15.701333 28.444444-32.312889 25.6-49.891556a39.082667 39.082667 0 0 0-16.497778-26.168889c-9.102222-6.257778-19.342222-7.964444-31.288889-6.257777-29.354667 5.12-66.56 29.127111-112.071111 72.248889-53.873778 50.631111-93.696 107.52-119.466666 171.008-25.6 63.715556-33.564444 123.335111-23.893334 179.086222 4.551111 26.339556 14.222222 51.768889 28.672 76.003555 14.620444 24.462222 31.857778 44.373333 52.110223 59.505778 42.552889 32.995556 88.632889 44.942222 138.410666 36.408889 51.882667-9.443556 91.136-34.702222 117.76-76.231111 10.808889-17.066667 18.318222-36.408889 22.755556-58.026667 4.209778-21.617778 4.551111-42.552889 1.137778-62.464-7.395556-42.097778-25.6-76.231111-54.044445-101.831111z m-427.235556 0a138.24 138.24 0 0 0-101.376-36.579556l-14.108444 1.706667h-10.808889c-17.976889 0.739556-27.989333-4.437333-29.923556-15.587556-2.275556-11.719111 5.688889-32.199111 24.462222-61.44 19.342222-29.980444 53.475556-64.056889 101.831112-102.229333 19.911111-15.701333 28.444444-32.312889 25.6-49.891556a38.4 38.4 0 0 0-15.928889-26.168889C397.041493 227.555556 386.801493 225.848889 374.854827 227.555556c-29.240889 5.12-66.56 29.354667-112.071111 72.419555C209.30816 351.004444 169.485938 407.893333 143.430827 471.608889 117.717049 535.324444 109.752604 594.944 119.423716 650.695111c4.721778 26.282667 14.336 51.768889 28.842666 75.946667 14.563556 24.462222 31.857778 44.373333 52.110222 59.505778 42.552889 32.995556 88.632889 44.942222 138.410667 35.84 51.996444-9.102222 91.249778-34.702222 117.76-76.231112a170.666667 170.666667 0 0 0 22.755556-58.026666c4.323556-21.617778 4.664889-42.666667 1.137777-62.577778-7.395556-42.097778-25.429333-76.060444-54.044444-101.831111z" /></svg>