<?xml version="1.0" encoding="iso-8859-1"?>
<!-- Generator: Adobe Illustrator 19.0.0, SVG Export Plug-In . SVG Version: 6.00 Build 0)  -->
<svg version="1.1" id="Layer_1" fill="#fff" xmlns="http://www.w3.org/2000/svg" xmlns:xlink="http://www.w3.org/1999/xlink" x="0px" y="0px"
	 viewBox="0 0 512.123 512.123" style="enable-background:new 0 0 512.123 512.123;" xml:space="preserve">
<g>
	<g>
		<path d="M501.138,85.435c-0.488-1.22-1.098-2.562-1.831-3.783c-1.831-2.93-4.516-4.882-7.445-5.736
			c-9.276-7.445-21.114-11.839-34.174-11.839H54.434c-16.843,0-31.611,7.323-41.62,19.039c-0.61,0.489-1.098,1.099-1.586,1.709
			c-0.366,0.489-0.732,1.099-0.976,1.586C3.783,95.321,0,106.306,0,118.389v275.223c0,30.391,24.045,54.434,54.435,54.434h403.254
			c30.39,0,54.435-24.044,54.435-54.434V118.51C512.122,105.94,507.973,94.59,501.138,85.435z M54.434,96.053h400.081
			L273.636,238.485l-17.575,14.402L52.481,96.175C53.092,96.053,53.824,96.053,54.434,96.053z M32.099,395.078
			c0-0.489,0-0.978,0-1.465V120.83L199.43,250.082L32.099,395.078z M56.387,416.19l168.674-146.216l21.358,16.598
			c3.173,1.586,6.346,3.173,9.642,3.173c3.173,0,6.346,0,9.642-4.76l19.406-15.256L452.44,416.19H56.387z M480.024,393.734
			c0,1.465-0.122,2.807-0.366,4.027L310.374,249.714L479.901,116.68c0.123,0.61,0.123,1.22,0.123,1.83V393.734z"/>
	</g>
</g>
<g>
</g>
<g>
</g>
<g>
</g>
<g>
</g>
<g>
</g>
<g>
</g>
<g>
</g>
<g>
</g>
<g>
</g>
<g>
</g>
<g>
</g>
<g>
</g>
<g>
</g>
<g>
</g>
<g>
</g>
</svg>
